<svg version="1.1" xmlns="http://www.w3.org/2000/svg" xmlns:xlink="http://www.w3.org/1999/xlink" x="0px" y="0px" viewBox="0 0 300 300" style="enable-background:new 0 0 300 300;" xml:space="preserve" height="100%" width="80%"><g id="alia"><g id="character"><polygon id="face-1" points="235.8,113.5 235.8,108.6 235.8,103.7 235.8,98.8 230.9,98.8 230.9,93.9 
				226,93.9 226,89 226,84.1 226,79.2 221.1,79.2 221.1,74.3 216.2,74.3 216.2,69.4 211.3,69.4 206.4,69.4 206.4,64.5 201.5,64.5 
				196.6,64.5 191.7,64.5 191.7,59.6 186.8,59.6 181.9,59.6 177,59.6 177,54.7 172.1,54.7 167.2,54.7 162.3,54.7 157.3,54.7 
				152.5,54.7 147.5,54.7 142.7,54.7 142.7,59.6 137.8,59.6 132.8,59.6 127.9,59.6 123,59.6 118.1,59.6 118.1,64.5 113.2,64.5 
				108.3,64.5 108.3,69.4 103.4,69.4 103.4,74.3 98.5,74.3 98.5,79.2 93.6,79.2 93.6,84.1 88.7,84.1 88.7,89 83.8,89 83.8,93.9 
				78.9,93.9 78.9,98.8 78.9,103.7 78.9,108.6 78.9,113.5 78.9,118.4 74,118.4 74,123.3 74,128.2 74,133.1 74,138 74,142.9 
				74,147.8 74,152.8 69.1,152.8 64.2,152.8 59.3,152.8 59.3,157.6 59.3,162.5 59.3,167.5 59.3,172.3 59.3,177.3 59.3,182.2 
				64.2,182.2 69.1,182.2 74,182.2 78.9,182.2 83.8,182.2 83.8,187.1 83.8,192 88.7,192 93.6,192 93.6,196.9 98.5,196.9 98.5,201.8 
				103.4,201.8 108.3,201.8 108.3,206.7 113.2,206.7 118.1,206.7 123,206.7 127.9,206.7 132.8,206.7 137.8,206.7 137.8,211.6 
				137.8,216.5 142.7,216.5 147.5,216.5 152.5,216.5 157.3,216.5 162.3,216.5 162.3,211.6 162.3,206.7 167.2,206.7 172.1,206.7 
				177,206.7 181.9,206.7 186.8,206.7 191.7,206.7 196.6,206.7 201.5,206.7 206.4,206.7 206.4,201.8 211.3,201.8 211.3,196.9 
				216.2,196.9 216.2,192 221.1,192 221.1,187.1 226,187.1 226,182.2 230.9,182.2 230.9,177.3 235.8,177.3 235.8,172.3 235.8,167.5 
				240.7,167.5 240.7,162.5 240.7,157.6 240.7,152.8 240.7,147.8 240.7,142.9 240.7,138 240.7,133.1 240.7,128.2 240.7,123.3 
				240.7,118.4 240.7,113.5 			" class="skin" xmlns="http://www.w3.org/2000/svg"><title>#face-1.face.skin</title></polygon><g id="headgear-3" class="hijab" xmlns="http://www.w3.org/2000/svg">
				<g id="headgear-3-50" class="">
					<polygon style="fill:#FFFFFF;stroke:#000000;stroke-miterlimit:10;" points="191.8,88.5 186.9,88.5 182,88.5 177,88.5 
						172.1,88.5 167.2,88.5 162.3,88.5 157.4,88.5 152.5,88.5 147.5,88.5 142.6,88.5 142.6,93.4 147.5,93.4 152.5,93.4 157.4,93.4 
						162.3,93.4 167.2,93.4 172.1,93.4 177,93.4 182,93.4 186.9,93.4 191.8,93.4 196.7,93.4 196.7,88.5 					"/>
					<polygon style="stroke:#000000;stroke-miterlimit:10;" points="186.9,83.6 182,83.6 177,83.6 172.1,83.6 167.2,83.6 
						162.3,83.6 157.4,83.6 152.5,83.6 147.5,83.6 147.5,88.5 152.5,88.5 157.4,88.5 162.3,88.5 167.2,88.5 172.1,88.5 177,88.5 
						182,88.5 186.9,88.5 191.8,88.5 191.8,83.6 					"/>
					<polygon style="fill:#FFFFFF;stroke:#000000;stroke-miterlimit:10;" points="182,78.7 177,78.7 172.1,78.7 167.2,78.7 
						162.3,78.7 157.4,78.7 152.5,78.7 152.5,83.6 157.4,83.6 162.3,83.6 167.2,83.6 172.1,83.6 177,83.6 182,83.6 186.9,83.6 
						186.9,78.7 					"/>
					<polygon style="stroke:#000000;stroke-miterlimit:10;" points="177,73.8 172.1,73.8 167.2,73.8 162.3,73.8 157.4,73.8 
						157.4,78.7 162.3,78.7 167.2,78.7 172.1,78.7 177,78.7 182,78.7 182,73.8 					"/>
					<polygon style="fill:#FFFFFF;stroke:#000000;stroke-miterlimit:10;" points="172.1,68.8 167.2,68.8 162.3,68.8 162.3,73.8 
						167.2,73.8 172.1,73.8 177,73.8 177,68.8 					"/>
					<rect x="167.2" y="63.9" style="stroke:#000000;stroke-miterlimit:10;" width="4.9" height="4.9"/>
				<title>#headgear-3-50</title></g>
				<polygon id="headgear-3-strip-2" points="241,78.7 241,73.8 236.1,73.8 236.1,68.8 231.2,68.8 231.2,63.9 
					226.2,63.9 226.2,59 221.3,59 221.3,54.1 216.4,54.1 216.4,49.2 211.5,49.2 211.5,44.3 206.6,44.3 206.6,39.3 201.6,39.3 
					201.6,34.4 196.7,34.4 196.7,39.3 191.8,39.3 191.8,44.3 186.9,44.3 186.9,49.2 182,49.2 182,54.1 177,54.1 177,59 172.1,59 
					172.1,63.9 172.1,68.8 177,68.8 177,73.8 182,73.8 182,78.7 186.9,78.7 186.9,83.6 191.8,83.6 191.8,88.5 196.7,88.5 
					196.7,93.4 201.6,93.4 201.6,98.4 206.6,98.4 206.6,103.3 211.5,103.3 211.5,108.2 216.4,108.2 216.4,113.1 221.3,113.1 
					221.3,118 226.2,118 226.2,123 231.2,123 231.2,127.9 236.1,127.9 236.1,132.8 241,132.8 241,137.7 245.9,137.7 245.9,132.8 
					245.9,127.9 245.9,123 245.9,118 245.9,113.1 245.9,108.2 245.9,103.3 245.9,98.4 245.9,93.4 245.9,88.5 245.9,83.6 245.9,78.7 
									" class=""><title>#headgear-3-strip-2</title></polygon>
				<polygon id="headgear-3-strip-1" points="191.8,29.5 191.8,24.6 186.9,24.6 186.9,19.7 182,19.7 182,14.8 
					177,14.8 177,9.8 172.1,9.8 167.2,9.8 162.3,9.8 157.4,9.8 157.4,14.8 152.5,14.8 152.5,19.7 147.5,19.7 147.5,24.6 142.6,24.6 
					142.6,29.5 137.7,29.5 137.7,34.4 132.8,34.4 132.8,39.3 127.9,39.3 127.9,44.3 123,44.3 123,49.2 118,49.2 118,54.1 
					113.1,54.1 113.1,59 108.2,59 108.2,63.9 103.3,63.9 103.3,68.8 98.4,68.8 98.4,73.8 93.4,73.8 93.4,78.7 88.5,78.7 88.5,83.6 
					83.6,83.6 83.6,88.5 78.7,88.5 78.7,93.4 73.8,93.4 73.8,98.4 68.8,98.4 68.8,103.3 63.9,103.3 63.9,108.2 59,108.2 59,113.1 
					54.1,113.1 54.1,118 54.1,123 54.1,127.9 54.1,132.8 54.1,137.7 54.1,142.6 54.1,147.5 54.1,152.5 54.1,157.4 54.1,162.3 
					54.1,167.2 59,167.2 63.9,167.2 68.8,167.2 68.8,162.3 73.8,162.3 73.8,157.4 78.7,157.4 78.7,152.5 83.6,152.5 83.6,147.5 
					88.5,147.5 88.5,142.6 93.4,142.6 93.4,137.7 98.4,137.7 98.4,132.8 103.3,132.8 103.3,127.9 108.2,127.9 108.2,123 113.1,123 
					113.1,118 118,118 118,113.1 123,113.1 123,108.2 127.9,108.2 127.9,103.3 132.8,103.3 132.8,98.4 137.7,98.4 137.7,93.4 
					142.6,93.4 142.6,88.5 147.5,88.5 147.5,83.6 152.5,83.6 152.5,78.7 157.4,78.7 157.4,73.8 162.3,73.8 162.3,68.8 167.2,68.8 
					167.2,63.9 172.1,63.9 172.1,59 177,59 177,54.1 182,54.1 182,49.2 186.9,49.2 186.9,44.3 191.8,44.3 191.8,39.3 196.7,39.3 
					196.7,34.4 196.7,29.5 				" class=""><title>#headgear-3-strip-1</title></polygon>
			<title>#headgear-3.headgear</title></g><polygon id="hairstyle-15" points="245.6,103.7 245.6,98.8 245.6,93.9 245.6,89 240.7,89 240.7,84.1 
				240.7,79.2 240.7,74.3 235.8,74.3 235.8,69.4 230.9,69.4 230.9,64.5 226,64.5 226,59.6 221.1,59.6 216.2,59.6 216.2,54.7 
				211.3,54.7 206.4,54.7 201.5,54.7 201.5,49.8 196.6,49.8 191.7,49.8 186.8,49.8 186.8,44.9 181.9,44.9 177,44.9 172.1,44.9 
				167.2,44.9 162.3,44.9 157.3,44.9 152.5,44.9 147.5,44.9 142.7,44.9 137.8,44.9 132.8,44.9 127.9,44.9 123,44.9 118.1,44.9 
				113.2,44.9 113.2,49.8 108.3,49.8 108.3,54.7 103.4,54.7 98.5,54.7 98.5,59.6 93.6,59.6 93.6,64.5 88.7,64.5 88.7,69.4 
				83.8,69.4 83.8,74.3 78.9,74.3 78.9,79.2 74,79.2 74,84.1 69.1,84.1 69.1,89 69.1,93.9 69.1,98.8 69.1,103.7 69.1,108.6 
				64.2,108.6 64.2,113.5 64.2,118.4 64.2,123.3 64.2,128.2 64.2,133.1 64.2,138 64.2,142.9 59.3,142.9 54.4,142.9 49.5,142.9 
				49.5,147.8 49.5,152.8 49.5,157.6 49.5,162.5 49.5,167.5 49.5,172.3 49.5,177.3 49.5,182.2 49.5,187.1 49.5,192 54.4,192 
				59.3,192 64.2,192 64.2,196.9 64.2,201.8 69.1,201.8 69.1,206.7 74,206.7 74,211.6 78.9,211.6 78.9,216.5 83.8,216.5 83.8,221.4 
				88.7,221.4 93.6,221.4 98.5,221.4 103.4,221.4 108.3,221.4 113.2,221.4 118.1,221.4 118.1,216.5 123,216.5 127.9,216.5 
				132.8,216.5 137.8,216.5 137.8,211.6 137.8,206.7 132.8,206.7 127.9,206.7 123,206.7 118.1,206.7 113.2,206.7 108.3,206.7 
				108.3,201.8 103.4,201.8 98.5,201.8 98.5,196.9 93.6,196.9 93.6,192 88.7,192 83.8,192 83.8,187.1 83.8,182.2 78.9,182.2 
				74,182.2 69.1,182.2 64.2,182.2 59.3,182.2 59.3,177.3 59.3,172.3 59.3,167.5 59.3,162.5 59.3,157.6 59.3,152.8 64.2,152.8 
				69.1,152.8 74,152.8 74,147.8 74,142.9 74,138 74,133.1 74,128.2 74,123.3 74,118.4 78.9,118.4 78.9,113.5 78.9,108.6 
				78.9,103.7 78.9,98.8 78.9,93.9 83.8,93.9 83.8,89 88.7,89 88.7,84.1 93.6,84.1 93.6,79.2 98.5,79.2 98.5,74.3 103.4,74.3 
				103.4,69.4 108.3,69.4 108.3,64.5 113.2,64.5 118.1,64.5 118.1,59.6 123,59.6 127.9,59.6 132.8,59.6 137.8,59.6 142.7,59.6 
				142.7,54.7 147.5,54.7 152.5,54.7 157.3,54.7 162.3,54.7 167.2,54.7 172.1,54.7 177,54.7 177,59.6 181.9,59.6 186.8,59.6 
				191.7,59.6 191.7,64.5 196.6,64.5 201.5,64.5 206.4,64.5 206.4,69.4 211.3,69.4 216.2,69.4 216.2,74.3 221.1,74.3 221.1,79.2 
				226,79.2 226,84.1 226,89 226,93.9 230.9,93.9 230.9,98.8 235.8,98.8 235.8,103.7 235.8,108.6 235.8,113.5 240.7,113.5 
				240.7,118.4 240.7,123.3 240.7,128.2 240.7,133.1 240.7,138 240.7,142.9 240.7,147.8 240.7,152.8 240.7,157.6 240.7,162.5 
				240.7,167.5 235.8,167.5 235.8,172.3 235.8,177.3 230.9,177.3 230.9,182.2 226,182.2 226,187.1 221.1,187.1 221.1,192 216.2,192 
				216.2,196.9 211.3,196.9 211.3,201.8 206.4,201.8 206.4,206.7 201.5,206.7 196.6,206.7 191.7,206.7 186.8,206.7 181.9,206.7 
				177,206.7 172.1,206.7 167.2,206.7 162.3,206.7 162.3,211.6 162.3,216.5 167.2,216.5 172.1,216.5 177,216.5 177,221.4 
				181.9,221.4 186.8,221.4 191.7,221.4 196.6,221.4 201.5,221.4 206.4,221.4 211.3,221.4 216.2,221.4 221.1,221.4 221.1,216.5 
				226,216.5 226,211.6 230.9,211.6 230.9,206.7 235.8,206.7 235.8,201.8 240.7,201.8 240.7,196.9 240.7,192 245.6,192 245.6,187.1 
				245.6,182.2 245.6,177.3 245.6,172.3 245.6,167.5 250.5,167.5 250.5,162.5 250.5,157.6 250.5,152.8 250.5,147.8 250.5,142.9 
				250.5,138 250.5,133.1 250.5,128.2 250.5,123.3 250.5,118.4 250.5,113.5 250.5,108.6 250.5,103.7 			" class="hijab" xmlns="http://www.w3.org/2000/svg"><title>#hairstyle-15.hairstyle.hair</title></polygon><g id="eyebrows-2" class="eyebrows hair" xmlns="http://www.w3.org/2000/svg">
				<g id="right-eyebrow-2" class="eyebrows hair">
					<polygon points="211.3,108.6 206.4,108.6 201.5,108.6 196.6,108.6 191.7,108.6 
						186.8,108.6 186.8,113.5 191.7,113.5 196.6,113.5 201.5,113.5 206.4,113.5 211.3,113.5 216.2,113.5 216.2,108.6 					"/>
					<rect x="181.9" y="113.5" width="4.9" height="4.9"/>
				<title>#right-eyebrow-2.eyebrows.hair</title></g>
				<g id="left-eyebrow-2" class="eyebrows hair">
					<polygon points="152.5,108.6 147.5,108.6 142.7,108.6 137.8,108.6 132.8,108.6 
						127.9,108.6 127.9,113.5 132.8,113.5 137.8,113.5 142.7,113.5 147.5,113.5 152.5,113.5 157.3,113.5 157.3,108.6 					"/>
					<rect x="123" y="113.5" width="4.9" height="4.9"/>
				<title>#left-eyebrow-2.eyebrows.hair</title></g>
			<title>#eyebrows-2.eyebrows.hair</title></g><g id="eyes-2" class="eyes" xmlns="http://www.w3.org/2000/svg">
				<polygon id="right-eye-2" points="216.2,138 211.3,138 211.3,142.9 206.4,142.9 201.5,142.9 196.6,142.9 
					191.7,142.9 186.8,142.9 186.8,147.8 186.8,152.8 191.7,152.8 191.7,147.8 196.6,147.8 196.6,152.8 201.5,152.8 201.5,147.8 
					206.4,147.8 206.4,152.8 211.3,152.8 211.3,147.8 216.2,147.8 216.2,142.9 221.1,142.9 221.1,138 				" class="eyes"><title>#right-eye-2.eyes</title></polygon>
				<polygon id="left-eye-2" points="157.3,138 152.5,138 152.5,142.9 147.5,142.9 142.7,142.9 137.8,142.9 
					132.8,142.9 127.9,142.9 127.9,147.8 127.9,152.8 132.8,152.8 132.8,147.8 137.8,147.8 137.8,152.8 142.7,152.8 142.7,147.8 
					147.5,147.8 147.5,152.8 152.5,152.8 152.5,147.8 157.3,147.8 157.3,142.9 162.3,142.9 162.3,138 				" class="eyes"><title>#left-eye-2.eyes</title></polygon>
			<title>#eyes-2.eyes</title></g><g id="mouth-11" class="mouth" xmlns="http://www.w3.org/2000/svg">
				<rect x="157.4" y="182" width="4.9" height="4.9"/>
				<rect x="186.9" y="182" width="4.9" height="4.9"/>
				<polygon points="177,186.9 172.1,186.9 167.2,186.9 162.3,186.9 162.3,191.8 167.2,191.8 
					172.1,191.8 177,191.8 182,191.8 186.9,191.8 186.9,186.9 182,186.9 				"/>
			<title>#mouth-11.mouth</title></g><g id="scarf-1" class="hijab" xmlns="http://www.w3.org/2000/svg">
				<polygon id="scarf-length-1" points="141.8,217.6 138.5,217.6 135.2,217.6 135.2,220.9 135.2,224.2 
					135.2,227.5 135.2,230.8 135.2,234.1 135.2,237.4 135.2,240.7 135.2,244 138.5,244 138.5,247.3 141.8,247.3 141.8,244 145,244 
					145,240.7 145,237.4 145,234.1 145,230.8 145,227.5 145,224.2 145,220.9 145,217.6 				" class=""><title>#scarf-length-1</title></polygon>
				<polygon id="scarf-neck-1" points="161.5,207.7 158.2,207.7 155,207.7 151.7,207.7 148.3,207.7 145,207.7 
					141.8,207.7 138.5,207.7 135.2,207.7 135.2,211 135.2,214.3 135.2,217.6 138.5,217.6 141.8,217.6 145,217.6 148.3,217.6 
					151.7,217.6 155,217.6 158.2,217.6 161.5,217.6 164.8,217.6 164.8,214.3 164.8,211 164.8,207.7 				" class=""><title>#scarf-neck-1</title></polygon>
			<title>#scarf-1.scarf</title></g><g id="character"/><g id="arms-1" class="skin" xmlns="http://www.w3.org/2000/svg">
				<polygon id="right-arm-1" points="184.5,227.5 184.5,224.2 181.2,224.2 181.2,220.9 177.9,220.9 
					177.9,224.2 177.9,227.5 177.9,230.8 177.9,234.1 177.9,237.4 177.9,240.7 177.9,244 177.9,247.2 177.9,250.5 177.9,253.8 
					177.9,257.1 177.9,260.4 181.2,260.4 184.5,260.4 184.5,257.1 187.8,257.1 187.8,253.8 187.8,250.5 187.8,247.2 187.8,244 
					187.8,240.7 187.8,237.4 187.8,234.1 187.8,230.8 187.8,227.5 				" class="arms skin"><title>#right-arm-1.arms.skin</title></polygon>
				<polygon id="left-arm-1" points="115.4,217.6 115.4,220.9 112.2,220.9 108.9,220.9 108.9,224.2 105.6,224.2 
					105.6,227.5 105.6,230.8 105.6,234.1 105.6,237.4 105.6,240.7 105.6,244 105.6,247.2 105.6,250.5 105.6,253.8 105.6,257.1 
					108.9,257.1 108.9,260.4 108.9,263.7 112.2,263.7 115.4,263.7 118.7,263.7 118.7,260.4 118.7,257.1 118.7,253.8 118.7,250.5 
					118.7,247.2 118.7,244 118.7,240.7 118.7,237.4 118.7,234.1 118.7,230.8 118.7,227.5 118.7,224.2 118.7,220.9 118.7,217.6 				
					" class="arms skin"><title>#left-arm-1.arms.skin</title></polygon>
			<title>#arms-1.arms.skin</title></g><g id="top-1" class="top" xmlns="http://www.w3.org/2000/svg">
				<polygon id="right-sleeve-1" points="184.5,227.5 184.5,224.2 181.2,224.2 181.2,220.9 177.9,220.9 
					177.9,224.2 177.9,227.5 177.9,230.8 177.9,234.1 177.9,237.4 177.9,240.7 177.9,244 181.2,244 184.5,244 187.8,244 
					187.8,240.7 187.8,237.4 187.8,234.1 187.8,230.8 187.8,227.5 				" class="sleeves"><title>#right-sleeve-1.sleeves.top</title></polygon>
				<polygon id="left-sleeve-1" points="115.4,217.6 115.4,220.9 112.2,220.9 108.9,220.9 108.9,224.2 
					105.6,224.2 105.6,227.5 105.6,230.8 105.6,234.1 105.6,237.4 105.6,240.7 105.6,244 108.9,244 112.2,244 115.4,244 118.7,244 
					118.7,240.7 118.7,237.4 118.7,234.1 118.7,230.8 118.7,227.5 118.7,224.2 118.7,220.9 118.7,217.6 				" class="sleeves"><title>#left-sleeve-1.sleeves.top</title></polygon>
				<polygon id="top-body-1" points="177.9,220.9 177.9,217.6 174.7,217.6 174.7,214.3 171.4,214.3 168.1,214.3 
					164.8,214.3 161.5,214.3 158.2,214.3 154.9,214.3 151.6,214.3 148.3,214.3 145,214.3 141.8,214.3 138.5,214.3 135.2,214.3 
					131.9,214.3 128.6,214.3 125.3,214.3 122,214.3 118.7,214.3 118.7,217.6 115.4,217.6 115.4,220.9 115.4,224.2 115.4,227.5 
					115.4,230.8 115.4,234.1 115.4,237.4 115.4,240.7 115.4,244 115.4,247.2 115.4,250.5 118.7,250.5 122,250.5 125.3,250.5 
					128.6,250.5 131.9,250.5 135.2,250.5 138.5,250.5 141.8,250.5 145,250.5 148.3,250.5 151.6,250.5 154.9,250.5 158.2,250.5 
					161.5,250.5 164.8,250.5 168.1,250.5 171.4,250.5 174.7,250.5 177.9,250.5 181.2,250.5 181.2,247.2 181.2,244 181.2,240.7 
					181.2,237.4 181.2,234.1 181.2,230.8 181.2,227.5 181.2,224.2 181.2,220.9 				" class=""><title>#top-body-1.top</title></polygon>
			<title>#top-1.top</title></g><g id="topdesign-1" class="topdesign" xmlns="http://www.w3.org/2000/svg">
				<polygon points="168.6,223.2 168.6,225.6 168.6,228.1 168.6,230.6 171.1,230.6 171.1,228.1 171.1,225.6 
					171.1,223.2 				"/>
				<polygon points="166.2,233.1 163.7,233.1 161.2,233.1 161.2,235.5 163.7,235.5 166.2,235.5 166.2,238 
					166.2,240.5 168.6,240.5 168.6,238 168.6,235.5 168.6,233.1 168.6,230.6 166.2,230.6 				"/>
				<polygon style="fill:#ED1C24;" points="168.6,225.6 168.6,223.2 166.2,223.2 163.7,223.2 163.7,225.6 
					166.2,225.6 166.2,228.1 166.2,230.6 168.6,230.6 168.6,228.1 				"/>
				<rect x="163.7" y="240.5" width="2.5" height="2.5"/>
				<path style="fill:#FFFFFF;" d="M166.2,235.5h-2.5h-2.5v-2.5h-2.5v-2.5h-2.5v-2.5h-2.5v2.5h-2.5h-2.5v-2.5h-2.5
					v-2.5v-2.5h-2.5v-2.5h-2.5h-2.5h-2.5H134v2.5v2.5h-2.5v2.5v2.5h2.5v2.5h-2.5v2.5h2.5v2.5h-2.5v2.5h2.5v2.5h2.5h2.5v2.5h2.5h2.5
					h2.5h2.5h2.5h2.5h2.5h2.5V243h2.5h2.5v-2.5h2.5V238V235.5z M156.3,233.1v2.5v2.5h-2.5v-2.5v-2.5H156.3z M143.9,238h-2.5v-2.5
					v-2.5h2.5v2.5V238z M146.4,238h2.5h2.5v2.5h-2.5h-2.5V238z"/>
				<polygon style="fill:#ED1C24;" points="163.7,228.1 161.2,228.1 161.2,230.6 161.2,233.1 163.7,233.1 
					166.2,233.1 166.2,230.6 163.7,230.6 				"/>
				<polygon points="161.2,225.6 161.2,228.1 163.7,228.1 163.7,230.6 166.2,230.6 166.2,228.1 166.2,225.6 
					163.7,225.6 163.7,223.2 161.2,223.2 				"/>
				<polygon points="163.7,220.7 166.2,220.7 166.2,223.2 168.6,223.2 168.6,220.7 168.6,218.2 166.2,218.2 
					163.7,218.2 161.2,218.2 158.7,218.2 158.7,220.7 161.2,220.7 				"/>
				<polygon points="158.7,243 158.7,245.4 161.2,245.4 163.7,245.4 163.7,243 161.2,243 				"/>
				<polygon points="161.2,228.1 158.7,228.1 156.3,228.1 156.3,230.6 158.7,230.6 158.7,233.1 161.2,233.1 
					161.2,230.6 				"/>
				<polygon style="fill:#ED1C24;" points="161.2,228.1 161.2,225.6 161.2,223.2 158.7,223.2 156.3,223.2 
					156.3,225.6 156.3,228.1 158.7,228.1 				"/>
				<polygon style="fill:#FFFFFF;" points="161.2,223.2 163.7,223.2 166.2,223.2 166.2,220.7 163.7,220.7 
					161.2,220.7 158.7,220.7 158.7,223.2 				"/>
				<rect x="156.3" y="220.7" width="2.5" height="2.5"/>
				<polygon points="153.8,245.4 151.3,245.4 148.8,245.4 146.4,245.4 143.9,245.4 141.4,245.4 138.9,245.4 
					138.9,247.9 141.4,247.9 143.9,247.9 146.4,247.9 148.8,247.9 151.3,247.9 153.8,247.9 156.3,247.9 158.7,247.9 158.7,245.4 
					156.3,245.4 				"/>
				<polygon points="153.8,238 156.3,238 156.3,235.5 156.3,233.1 153.8,233.1 153.8,235.5 				"/>
				<polygon points="156.3,223.2 153.8,223.2 151.3,223.2 151.3,225.6 153.8,225.6 153.8,228.1 156.3,228.1 
					156.3,225.6 				"/>
				<polygon points="153.8,220.7 156.3,220.7 156.3,218.2 153.8,218.2 151.3,218.2 151.3,220.7 				"/>
				<polygon points="151.3,240.5 151.3,238 148.8,238 146.4,238 146.4,240.5 148.8,240.5 				"/>
				<polygon points="148.8,228.1 148.8,230.6 151.3,230.6 153.8,230.6 153.8,228.1 151.3,228.1 				"/>
				<polygon style="fill:#ED1C24;" points="148.8,225.6 148.8,228.1 151.3,228.1 153.8,228.1 153.8,225.6 
					151.3,225.6 151.3,223.2 153.8,223.2 156.3,223.2 156.3,220.7 153.8,220.7 151.3,220.7 148.8,220.7 148.8,223.2 				"/>
				<rect x="148.8" y="218.2" width="2.5" height="2.5"/>
				<rect x="146.4" y="225.6" width="2.5" height="2.5"/>
				<polygon points="146.4,223.2 146.4,225.6 148.8,225.6 148.8,223.2 148.8,220.7 146.4,220.7 143.9,220.7 
					143.9,223.2 				"/>
				<polygon points="141.4,233.1 141.4,235.5 141.4,238 143.9,238 143.9,235.5 143.9,233.1 				"/>
				<rect x="136.5" y="243" width="2.5" height="2.5"/>
				<polygon points="138.9,220.7 141.4,220.7 143.9,220.7 143.9,218.2 141.4,218.2 138.9,218.2 136.5,218.2 
					134,218.2 134,220.7 136.5,220.7 				"/>
				<rect x="134" y="243" width="2.5" height="2.5"/>
				<rect x="131.5" y="240.5" width="2.5" height="2.5"/>
				<polygon points="134,238 134,235.5 131.5,235.5 131.5,233.1 134,233.1 134,230.6 131.5,230.6 131.5,228.1 
					131.5,225.6 129,225.6 129,228.1 129,230.6 129,233.1 129,235.5 129,238 129,240.5 131.5,240.5 131.5,238 				"/>
				<polygon points="134,223.2 134,220.7 131.5,220.7 131.5,223.2 131.5,225.6 134,225.6 				"/>
			<title>#topdesign-1.topdesign</title></g><g id="belt-1" class="belt" xmlns="http://www.w3.org/2000/svg">
				<path id="belt-buckle" d="M155,244h-3.3h-3.3H145v3.3v3.3v3.3h3.3h3.3h3.3h3.3v-3.3v-3.3V244H155z
					 M155,250.5h-3.3h-3.3v-3.3h3.3h3.3V250.5z" class=""><title>#belt-buckle</title></path>
				<g id="belt-strap" class="">
					<polygon points="174.7,244 171.4,244 168.1,244 164.8,244 161.5,244 158.2,244 
						158.2,247.3 158.2,250.5 158.2,253.8 161.5,253.8 164.8,253.8 168.1,253.8 171.4,253.8 174.7,253.8 178,253.8 178,250.5 
						178,247.3 178,244 					"/>
					<polygon points="148.3,247.3 148.3,250.5 151.7,250.5 155,250.5 155,247.3 151.7,247.3 
											"/>
					<polygon points="138.5,244 135.2,244 131.9,244 128.6,244 125.3,244 122,244 118.7,244 
						118.7,247.3 118.7,250.5 118.7,253.8 122,253.8 125.3,253.8 128.6,253.8 131.9,253.8 135.2,253.8 138.5,253.8 141.8,253.8 
						145,253.8 145,250.5 145,247.3 145,244 141.8,244 					"/>
				<title>#belt-strap</title></g>
			<title>#belt-1.belt</title></g><g id="legs-1" class="skin" xmlns="http://www.w3.org/2000/svg">
				<polygon id="right-leg-1" points="177.9,250.5 174.7,250.5 171.4,250.5 168.1,250.5 164.8,250.5 
					161.5,250.5 158.2,250.5 154.9,250.5 151.6,250.5 151.6,253.8 151.6,257.1 151.6,260.4 154.9,260.4 158.2,260.4 158.2,263.7 
					158.2,267 158.2,270.3 158.2,273.5 158.2,276.8 161.5,276.8 164.8,276.8 168.1,276.8 171.4,276.8 174.7,276.8 177.9,276.8 
					181.2,276.8 181.2,273.5 181.2,270.3 181.2,267 181.2,263.7 181.2,260.4 181.2,257.1 181.2,253.8 181.2,250.5 				" class="legs skin"><title>#right-leg-1.legs.skin</title></polygon>
				<polygon id="left-leg-1" points="148.3,250.5 145,250.5 141.8,250.5 138.5,250.5 135.2,250.5 131.9,250.5 
					128.6,250.5 125.3,250.5 122,250.5 118.7,250.5 115.4,250.5 115.4,253.8 115.4,257.1 115.4,260.4 115.4,263.7 115.4,267 
					115.4,270.3 115.4,273.5 115.4,276.8 118.7,276.8 122,276.8 125.3,276.8 128.6,276.8 131.9,276.8 135.2,276.8 138.5,276.8 
					138.5,273.5 138.5,270.3 138.5,267 138.5,263.7 138.5,260.4 141.8,260.4 145,260.4 148.3,260.4 151.6,260.4 151.6,257.1 
					151.6,253.8 151.6,250.5 				" class="legs skin"><title>#left-leg-1.legs.skin</title></polygon>
			<title>#legs-1.legs.skin</title></g><g id="bottoms-3" class="bottoms" xmlns="http://www.w3.org/2000/svg">
				<polygon id="right-bottom-3" points="194.4,267 194.4,263.7 191.1,263.7 191.1,260.4 187.8,260.4 
					187.8,257.1 184.5,257.1 184.5,253.8 181.2,253.8 181.2,250.5 177.9,250.5 174.7,250.5 171.4,250.5 168.1,250.5 164.8,250.5 
					161.5,250.5 158.2,250.5 154.9,250.5 151.6,250.5 151.6,253.8 151.6,257.1 151.6,260.4 151.6,263.7 151.6,267 151.6,270.3 
					154.9,270.3 158.2,270.3 161.5,270.3 164.8,270.3 168.1,270.3 171.4,270.3 174.7,270.3 177.9,270.3 181.2,270.3 184.5,270.3 
					187.8,270.3 191.1,270.3 194.4,270.3 197.7,270.3 197.7,267 				" class="bottoms"><title>#right-bottom-3.bottoms</title></polygon>
				<polygon id="left-bottom-3" points="148.3,250.5 145,250.5 141.8,250.5 138.5,250.5 135.2,250.5 
					131.9,250.5 128.6,250.5 125.3,250.5 122,250.5 118.7,250.5 115.4,250.5 115.4,253.8 112.2,253.8 112.2,257.1 108.9,257.1 
					108.9,260.4 105.6,260.4 105.6,263.7 102.3,263.7 102.3,267 99,267 99,270.3 102.3,270.3 105.6,270.3 108.9,270.3 112.2,270.3 
					115.4,270.3 118.7,270.3 122,270.3 125.3,270.3 128.6,270.3 131.9,270.3 135.2,270.3 138.5,270.3 141.8,270.3 145,270.3 
					148.3,270.3 151.6,270.3 151.6,267 151.6,263.7 151.6,260.4 151.6,257.1 151.6,253.8 151.6,250.5 				" class="bottoms"><title>#left-bottom-3.bottoms</title></polygon>
			<title>#bottoms-3.bottoms</title></g><g id="feet-1" class="feet skin" xmlns="http://www.w3.org/2000/svg">
				<polygon id="right-foot-1" points="187.8,276.8 184.5,276.8 181.2,276.8 177.9,276.8 174.7,276.8 
					171.4,276.8 168.1,276.8 164.8,276.8 161.5,276.8 158.2,276.8 158.2,280.1 158.2,283.4 158.2,286.7 158.2,290 161.5,290 
					164.8,290 168.1,290 171.4,290 174.7,290 177.9,290 181.2,290 184.5,290 187.8,290 191.1,290 191.1,286.7 191.1,283.4 
					191.1,280.1 191.1,276.8 				" class="feet skin"><title>#right-foot-1.feet.skin</title></polygon>
				<polygon id="left-foot-1" points="145,276.8 141.8,276.8 138.5,276.8 135.2,276.8 131.9,276.8 128.6,276.8 
					125.3,276.8 122,276.8 118.7,276.8 115.4,276.8 115.4,280.1 115.4,283.4 115.4,286.7 115.4,290 118.7,290 122,290 125.3,290 
					128.6,290 131.9,290 135.2,290 138.5,290 141.8,290 145,290 148.3,290 148.3,286.7 148.3,283.4 148.3,280.1 148.3,276.8 				" class="feet skin"><title>#left-foot-1.feet.skin</title></polygon>
			<title>#feet-1.feet.skin</title></g><g id="shoes-1" class="shoes" xmlns="http://www.w3.org/2000/svg">
				<g id="right-shoe-1" class="shoes">
					<polygon id="right-shoe-sole-1" points="187.8,286.7 184.5,286.7 181.2,286.7 177.9,286.7 174.7,286.7 
						171.4,286.7 168.1,286.7 164.8,286.7 161.5,286.7 158.2,286.7 158.2,290 161.5,290 164.8,290 168.1,290 171.4,290 174.7,290 
						177.9,290 181.2,290 184.5,290 187.8,290 191.1,290 191.1,286.7 					" class="shoes shoe-soles"><title>#right-shoe-sole-1.shoes.shoe-soles</title></polygon>
					<polygon id="right-shoe-base-1" points="187.8,276.8 184.5,276.8 181.2,276.8 177.9,276.8 174.7,276.8 
						171.4,276.8 168.1,276.8 164.8,276.8 161.5,276.8 158.2,276.8 158.2,280.1 158.2,283.4 158.2,286.7 161.5,286.7 164.8,286.7 
						168.1,286.7 171.4,286.7 174.7,286.7 177.9,286.7 181.2,286.7 184.5,286.7 187.8,286.7 191.1,286.7 191.1,283.4 191.1,280.1 
						191.1,276.8 					" class="shoes shoe-bases"><title>#right-shoe-base-1.shoes.shoe-bases</title></polygon>
					<g id="right-shoe-laces-1" class="shoes shoe-laces">
						<polygon points="181.2,276.8 181.2,280.1 181.2,283.4 184.5,283.4 184.5,280.1 
							184.5,276.8 						"/>
						<polygon points="174.7,280.1 174.7,283.4 177.9,283.4 177.9,280.1 177.9,276.8 
							174.7,276.8 						"/>
					<title>#right-shoe-laces-1.shoes.shoe-laces</title></g>
				<title>#right-shoe-1.shoes</title></g>
				<g id="left-shoe-1" class="shoes">
					<polygon id="left-shoe-sole-1" points="145,286.7 141.8,286.7 138.5,286.7 135.2,286.7 131.9,286.7 
						128.6,286.7 125.3,286.7 122,286.7 118.7,286.7 115.4,286.7 115.4,290 118.7,290 122,290 125.3,290 128.6,290 131.9,290 
						135.2,290 138.5,290 141.8,290 145,290 148.3,290 148.3,286.7 					" class="shoes shoe-soles"><title>#left-shoe-sole-1.shoes.shoe-soles</title></polygon>
					<polygon id="left-shoe-base-1" points="145,276.8 141.8,276.8 138.5,276.8 135.2,276.8 131.9,276.8 
						128.6,276.8 125.3,276.8 122,276.8 118.7,276.8 115.4,276.8 115.4,280.1 115.4,283.4 115.4,286.7 118.7,286.7 122,286.7 
						125.3,286.7 128.6,286.7 131.9,286.7 135.2,286.7 138.5,286.7 141.8,286.7 145,286.7 148.3,286.7 148.3,283.4 148.3,280.1 
						148.3,276.8 					" class="shoes shoe-bases"><title>#left-shoe-base-1.shoes.shoe-bases</title></polygon>
					<g id="left-shoe-laces-1" class="shoes shoe-laces">
						<polygon points="138.5,276.8 138.5,280.1 138.5,283.4 141.8,283.4 141.8,280.1 141.8,276.8 
													"/>
						<polygon points="131.9,280.1 131.9,283.4 135.2,283.4 135.2,280.1 135.2,276.8 131.9,276.8 
													"/>
					<title>#left-shoe-laces-1.shoes.shoe-laces</title></g>
				<title>#left-shoe-1.shoes</title></g>
			<title>#shoes-1.shoes</title></g></g></g><style>
    * {
      stroke: black;
      stroke-width: 1px;
    }
    .shade{
        fill:rgba(0,0,0,0.2);
    }.background {
  background-color: #fff;
  background-image: linear-gradient(90deg, transparent 79px, #abced4 79px, #abced4 81px, transparent 81px),
linear-gradient(#eee .1em, transparent .1em);
  background-size: 100% 1.2em;
}

.skin {
  fill: #FFDCB2;
}

.hijab {
  fill: grey;
}

.mouth {
  fill: darkred;
}

.top {
  fill: lightpink;
}

.belt {
  fill: red;
}

.bottoms {
  fill: orange;
}

.shoes {
  fill: brown;
}</style><style>
.eyebrows {
  animation: raise-eyebrows 1s 1;
  transform-origin: center center;
}
@keyframes raise-eyebrows {
  0% {
      transform: translateY(0);
  }
  50% {
      transform: translateY(-5px);
  }
  100% {
      transform: translateY(0);
  }
} 
.mouth {
  animation: look-mouth 1s 1;
  transform-origin: center center;
}
@keyframes look-mouth {
    25% {
        transform: translateX(-4px);
    }
    50% {
        transform: translateX(-4px) translateY(-4px);
    }
    75% {
        transform: translateY(-4px);
    }
}</style></svg>